<svg width="19" height="20" viewBox="0 0 19 20" fill="none" xmlns="http://www.w3.org/2000/svg">
<path fill-rule="evenodd" clip-rule="evenodd" d="M13.5 10.8333C13.5 13.1345 11.6345 15 9.33331 15C7.03212 15 5.16665 13.1345 5.16665 10.8333C5.16665 8.53213 7.03212 6.66665 9.33331 6.66665C11.6345 6.66665 13.5 8.53213 13.5 10.8333ZM11.8333 10.8333C11.8333 12.214 10.714 13.3333 9.33331 13.3333C7.9526 13.3333 6.83331 12.214 6.83331 10.8333C6.83331 9.4526 7.9526 8.33331 9.33331 8.33331C10.714 8.33331 11.8333 9.4526 11.8333 10.8333Z" fill="#090B0C"/>
<path fill-rule="evenodd" clip-rule="evenodd" d="M10.6958 1.14168C9.86729 0.603162 8.79934 0.603163 7.97084 1.14168L1.43789 5.3881C0.621873 5.91851 0.18785 6.87429 0.325489 7.83776L1.63727 17.0202C1.81321 18.2518 2.86801 19.1666 4.11214 19.1666H14.5545C15.7986 19.1666 16.8534 18.2518 17.0294 17.0202L18.3411 7.83776C18.4788 6.87429 18.0448 5.91851 17.2287 5.3881L10.6958 1.14168ZM8.87916 2.53909C9.15532 2.35958 9.51131 2.35958 9.78747 2.53909L16.3204 6.78551C16.5924 6.96231 16.7371 7.28091 16.6912 7.60206L15.3794 16.7845C15.3208 17.195 14.9692 17.5 14.5545 17.5H4.11214C3.69743 17.5 3.34583 17.195 3.28718 16.7845L1.9754 7.60206C1.92952 7.2809 2.0742 6.96231 2.34621 6.78551L8.87916 2.53909Z" fill="#090B0C"/>
</svg>
