<svg width="19" height="17" viewBox="0 0 19 17" fill="none" xmlns="http://www.w3.org/2000/svg">
<path fill-rule="evenodd" clip-rule="evenodd" d="M7.24987 2.33341C5.63904 2.33341 4.33321 3.63925 4.33321 5.25008C4.33321 6.86091 5.63904 8.16675 7.24987 8.16675C8.8607 8.16675 10.1665 6.86091 10.1665 5.25008C10.1665 3.63925 8.8607 2.33341 7.24987 2.33341ZM2.66654 5.25008C2.66654 2.71878 4.71857 0.666748 7.24987 0.666748C9.78118 0.666748 11.8332 2.71878 11.8332 5.25008C11.8332 7.78139 9.78118 9.83341 7.24987 9.83341C4.71857 9.83341 2.66654 7.78139 2.66654 5.25008ZM11.9203 1.51902C12.1251 1.10687 12.6253 0.938799 13.0374 1.14362C14.5445 1.8926 15.5832 3.44928 15.5832 5.25008C15.5832 7.05088 14.5445 8.60756 13.0374 9.35654C12.6253 9.56136 12.1251 9.39329 11.9203 8.98114C11.7155 8.56899 11.8835 8.06884 12.2957 7.86402C13.2581 7.38575 13.9165 6.39405 13.9165 5.25008C13.9165 4.10611 13.2581 3.11441 12.2957 2.63614C11.8835 2.43132 11.7155 1.93117 11.9203 1.51902ZM7.24987 13.1667C5.13423 13.1667 3.15614 14.2712 1.65514 16.1816C1.37081 16.5435 0.846927 16.6064 0.48503 16.322C0.123133 16.0377 0.0602609 15.5138 0.3446 15.1519C2.08775 12.9333 4.51414 11.5001 7.24987 11.5001C9.9856 11.5001 12.412 12.9333 14.1551 15.1519C14.4395 15.5138 14.3766 16.0377 14.0147 16.322C13.6528 16.6064 13.1289 16.5435 12.8446 16.1816C11.3436 14.2712 9.36551 13.1667 7.24987 13.1667ZM13.574 12.6285C13.7637 12.2092 14.2575 12.0231 14.6768 12.2129C16.075 12.8456 17.3116 13.8661 18.3218 15.1519C18.6062 15.5138 18.5433 16.0377 18.1814 16.322C17.8195 16.6064 17.2956 16.5435 17.0113 16.1816C16.1423 15.0757 15.1105 14.2385 13.9897 13.7313C13.5703 13.5416 13.3842 13.0478 13.574 12.6285Z" fill="#768193"/>
</svg>
